<svg width="22" height="22" viewBox="0 0 22 22" fill="none" xmlns="http://www.w3.org/2000/svg">
<path d="M5.71478 9.53728L5.45806 9.794L5.62271 10.1176C6.99108 12.8068 9.19452 15.0001 11.8812 16.3767L12.2052 16.5427L12.4627 16.2852L14.4794 14.2686C14.5923 14.1556 14.759 14.1201 14.8987 14.168L14.8987 14.168L14.904 14.1698C15.9811 14.5256 17.1433 14.7175 18.3333 14.7175C18.5614 14.7175 18.75 14.9061 18.75 15.1342V18.3333C18.75 18.5614 18.5614 18.75 18.3333 18.75C10.002 18.75 3.25 11.998 3.25 3.66667C3.25 3.43864 3.43864 3.25 3.66667 3.25H6.875C7.10302 3.25 7.29167 3.43864 7.29167 3.66667C7.29167 4.86461 7.48314 6.01613 7.83804 7.09189C7.88421 7.2421 7.84989 7.40217 7.73145 7.52061L5.71478 9.53728Z" fill="black" stroke="white"/>
</svg>
