<svg width="123" height="96" viewBox="0 0 123 96" fill="none" xmlns="http://www.w3.org/2000/svg">
<path fill-rule="evenodd" clip-rule="evenodd" d="M37.5404 0.940918H120.35C121.7 0.940918 122.81 2.18328 122.81 3.69426V19.845H122.88V77.9339V81.1573V81.8513H39.5104V77.9339H119.38V20.5277H32.6104V6.4588C32.6104 3.42565 34.8304 0.940918 37.5404 0.940918ZM0.0104078 47.2553C-0.299592 40.7637 4.46041 39.1072 10.9104 39.5325L19.0504 49.6841L27.0204 39.6668L46.7604 39.5437C54.2204 40.4951 52.6504 49.2252 46.7604 49.5946H33.8404L30.8004 70.032L28.5004 90.7828C27.9004 92.9766 26.7004 94.4092 24.9704 95.1479L13.7404 95.2374C11.4804 94.8569 10.1304 93.3795 9.73041 90.7828L7.98041 72.3041C3.38041 72.7965 1.84041 69.1478 1.36041 63.865L0.0104078 47.2553ZM18.5604 11.876C24.0904 11.876 28.5704 16.8902 28.5704 23.0796C28.5704 29.2691 24.0904 34.2833 18.5604 34.2833C13.0304 34.2833 8.55041 29.2691 8.55041 23.0796C8.54041 16.9014 13.0304 11.876 18.5604 11.876ZM18.9404 44.9161L12.6004 37.1374L14.4704 35.4697C17.2204 36.7568 19.9504 36.7568 22.6504 35.4697L25.2104 37.1709L18.9404 44.9161ZM66.0404 5.95514C68.0504 5.95514 69.6804 7.77951 69.6804 10.0292C69.6804 12.2789 68.0504 14.1033 66.0404 14.1033C64.0304 14.1033 62.4004 12.2789 62.4004 10.0292C62.4004 7.77951 64.0304 5.95514 66.0404 5.95514ZM45.3304 5.95514C47.3404 5.95514 48.9704 7.77951 48.9704 10.0292C48.9704 12.2789 47.3404 14.1033 45.3304 14.1033C43.3204 14.1033 41.6904 12.2789 41.6904 10.0292C41.6904 7.77951 43.3204 5.95514 45.3304 5.95514ZM55.6804 5.95514C57.6904 5.95514 59.3204 7.77951 59.3204 10.0292C59.3204 12.2789 57.6904 14.1033 55.6804 14.1033C53.6704 14.1033 52.0404 12.2789 52.0404 10.0292C52.0404 7.77951 53.6704 5.95514 55.6804 5.95514ZM109.11 7.8019C108.74 7.38778 108.74 6.70504 109.11 6.29092C109.48 5.8768 110.09 5.8768 110.46 6.29092L112.46 8.52941L114.46 6.29092C114.83 5.8768 115.44 5.8768 115.81 6.29092C116.18 6.70504 116.18 7.38778 115.81 7.8019L113.81 10.0404L115.81 12.2789C116.18 12.693 116.18 13.3757 115.81 13.7899C115.44 14.204 114.83 14.204 114.46 13.7899L112.46 11.5514L110.46 13.7899C110.09 14.204 109.48 14.204 109.11 13.7899C108.74 13.3757 108.74 12.693 109.11 12.2789L111.11 10.0404L109.11 7.8019Z" fill="white"/>
</svg>
