<svg width="23" height="23" viewBox="0 0 23 23" fill="none" xmlns="http://www.w3.org/2000/svg">
<path d="M11.5 1C17.2993 1 22 5.70137 22 11.5C22 17.2987 17.2993 22 11.5 22C5.70066 22 1 17.2986 1 11.5C1 5.70144 5.70075 1 11.5 1Z" fill="black" stroke="white" stroke-width="2"/>
<path d="M6.48028 15.801H8.63367V8.62351H6.48028V15.801ZM14.8696 8.37489C13.8245 8.37489 12.8894 8.75654 12.226 9.59895V8.5999H10.0647V15.801H12.226V11.9069C12.226 11.0839 12.98 10.281 13.9244 10.281C14.8688 10.281 15.1018 11.0839 15.1018 11.8867V15.8003H17.2551V11.7265C17.2551 8.89668 15.9153 8.37489 14.8696 8.37489ZM7.54691 7.90624C8.14204 7.90624 8.62507 7.42321 8.62507 6.82808C8.62507 6.23294 8.14204 5.75 7.54691 5.75C6.95177 5.75 6.46875 6.23302 6.46875 6.82816C6.46875 7.42329 6.95177 7.90624 7.54691 7.90624Z" fill="white"/>
</svg>
