<svg width="16" height="23" viewBox="0 0 16 23" fill="none" xmlns="http://www.w3.org/2000/svg">
<g clip-path="url(#clip0_4_837)">
<path d="M8.00019 21.5515C7.79326 21.3104 7.50943 20.9737 7.17314 20.5594C6.45042 19.6689 5.4876 18.4223 4.52578 16.9967C3.563 15.5698 2.60739 13.9725 1.89399 12.3801C1.17766 10.7812 0.722412 9.22382 0.722412 7.86665C0.722412 3.84279 3.97633 0.588867 8.00019 0.588867C12.024 0.588867 15.2779 3.84279 15.2779 7.86665C15.2779 9.22382 14.8227 10.7812 14.1064 12.3801C13.393 13.9725 12.4374 15.5698 11.4746 16.9967C10.5128 18.4223 9.54995 19.6689 8.82723 20.5594C8.49094 20.9737 8.20711 21.3104 8.00019 21.5515ZM4.72242 7.86665C4.72242 9.67612 6.19071 11.1444 8.00019 11.1444C9.80967 11.1444 11.2779 9.67611 11.2779 7.86665C11.2779 6.05718 9.80967 4.58886 8.00019 4.58886C6.19071 4.58886 4.72242 6.05717 4.72242 7.86665Z" fill="black" stroke="white"/>
</g>
<defs>
<clipPath id="clip0_4_837">
<rect width="16" height="22.4" fill="white"/>
</clipPath>
</defs>
</svg>
