<svg width="26" height="26" viewBox="0 0 26 26" fill="none" xmlns="http://www.w3.org/2000/svg">
<path d="M2.67746 6.50034V6.49992C2.67746 5.58113 3.42102 4.83325 4.33329 4.83325H21.6666C22.5822 4.83325 23.3333 5.58439 23.3333 6.49992V19.4999C23.3333 20.4154 22.5822 21.1666 21.6666 21.1666H4.33329C3.41783 21.1666 2.66673 20.4155 2.66663 19.5001C2.66663 19.5 2.66663 19.5 2.66663 19.4999L2.67746 6.50034ZM21.9316 9.09058L22.1666 8.94371V8.66658V6.49992V5.59779L21.4016 6.07592L13 11.327L4.59829 6.07592L3.83329 5.59779V6.49992V8.66658V8.94371L4.06829 9.09058L12.735 14.5072L13 14.6729L13.265 14.5072L21.9316 9.09058Z" fill="black" stroke="white"/>
</svg>
