<svg width="123" height="96" viewBox="0 0 123 96" fill="none" xmlns="http://www.w3.org/2000/svg">
<path fill-rule="evenodd" clip-rule="evenodd" d="M5.73 0H117.16C118.74 0 120.17 0.64 121.21 1.68C122.25 2.72 122.89 4.15 122.89 5.73V77C122.89 78.58 122.25 80.01 121.21 81.05C120.17 82.09 118.74 82.73 117.16 82.73H114.78L109.77 73.07C110.05 72.22 110.24 71.38 110.37 70.55L110.45 70.02C111.01 69.39 111.56 68.66 112.08 67.81C112.17 67.66 112.26 67.51 112.35 67.35C113.23 65.77 113.81 64.11 114.09 62.33C114.11 62.22 114.12 62.1 114.14 61.99L116.66 59.47V23.25L99.63 6.23H23.25L6.23 23.25V59.47L23.25 76.49H60.5L57.42 82.44C57.37 82.53 57.32 82.63 57.27 82.72H5.73C4.15 82.72 2.72 82.08 1.68 81.04C0.64 80.01 0 78.58 0 77V5.73C0 4.15 0.64 2.72 1.68 1.68C2.72 0.64 4.15 0 5.73 0ZM86.02 41.37C86.56 41.34 87.04 41.43 87.49 41.58C87.93 41.73 88.33 41.96 88.75 42.21C89.17 42.48 89.61 42.84 90.07 43.25L90.1 43.28C90.68 43.78 91.33 44.33 92.05 44.74C92.64 45.07 93.51 45.1 94.43 45.15C96.16 45.21 98.04 45.29 99.28 47.13C100.35 48.74 100.44 49.95 100.51 51.17L100.53 51.3C100.56 51.89 100.63 52.44 100.84 53.04C101.05 53.66 101.41 54.32 102.01 55.13C103.14 56.62 103.81 57.88 104.07 59.04C104.34 60.26 104.16 61.35 103.54 62.47L103.52 62.5C103.06 63.3 102.38 63.88 101.79 64.38C101.35 64.76 100.96 65.09 100.84 65.36C100.52 66.1 100.51 66.77 100.51 67.48C100.49 68.44 100.48 69.43 99.85 70.7L99.84 70.73C99.43 71.51 98.92 72.17 98.31 72.7C97.68 73.24 96.94 73.65 96.1 73.92C95.35 74.16 94.66 74.12 93.98 74.07C93.42 74.03 92.91 74 92.52 74.16L92.47 74.17C91.66 74.52 90.92 75.12 90.22 75.67C89.44 76.3 88.7 76.89 87.86 77.16C87.24 77.36 86.63 77.45 86.01 77.45C85.39 77.45 84.78 77.36 84.16 77.16L84.13 77.15C83.3 76.89 82.57 76.29 81.79 75.66C81.08 75.09 80.33 74.49 79.5 74.14C79.11 73.97 78.6 74.02 78.04 74.05C77.38 74.09 76.67 74.14 75.91 73.9L75.87 73.88C75.04 73.61 74.32 73.21 73.69 72.68C73.07 72.14 72.55 71.48 72.16 70.68C71.53 69.42 71.52 68.43 71.5 67.47C71.48 66.76 71.48 66.09 71.17 65.35L71.16 65.34C71.03 65.05 70.63 64.72 70.2 64.35C69.6 63.84 68.92 63.27 68.47 62.47L68.44 62.42C67.82 61.32 67.66 60.24 67.93 59.03C68.19 57.87 68.88 56.61 70 55.12C70.62 54.32 70.96 53.65 71.17 53.03C71.38 52.43 71.46 51.86 71.49 51.27L71.51 51.15C71.58 49.93 71.68 48.69 72.74 47.11L72.77 47.08C74 45.26 75.87 45.2 77.58 45.14C78.5 45.11 79.38 45.06 79.97 44.73L79.99 44.71C80.7 44.3 81.34 43.76 81.93 43.25C82.4 42.84 82.83 42.47 83.28 42.2C83.69 41.93 84.11 41.72 84.54 41.57C85.01 41.43 85.49 41.36 86.02 41.37ZM104.35 91.29L99.83 90.48L97.56 94.55C97.55 94.58 97.53 94.61 97.5 94.63C96.55 95.8 95.68 95.77 94.93 95.16C94.12 94.5 93.58 93.09 93.23 92.16L93.1 91.8L88.31 82.75C88.16 82.46 88.27 82.12 88.55 81.98C88.58 81.96 88.61 81.95 88.63 81.95C89.13 81.78 89.68 81.44 90.28 80.99C90.91 80.52 91.57 79.94 92.25 79.34C92.37 79.23 92.52 79.17 92.69 79.19C93.98 79.22 95.24 79.11 96.37 78.74C97.48 78.36 98.5 77.7 99.37 76.59C99.57 76.33 99.93 76.29 100.17 76.48C100.23 76.54 100.29 76.6 100.32 76.68L105.86 87.38L106.34 88.42C106.36 88.45 106.37 88.48 106.37 88.51C106.59 89.31 106.64 90 106.37 90.52C106.07 91.11 105.48 91.41 104.49 91.33C104.46 91.32 104.4 91.3 104.35 91.29ZM72.24 90.48L67.72 91.29C67.68 91.3 67.63 91.3 67.57 91.3C66.58 91.38 65.99 91.07 65.69 90.49C65.42 89.98 65.46 89.29 65.69 88.48L65.72 88.39L66.2 87.35L71.74 76.65C71.77 76.57 71.83 76.51 71.89 76.45C72.15 76.25 72.49 76.3 72.69 76.55C73.55 77.65 74.57 78.31 75.7 78.7C76.84 79.09 78.09 79.18 79.38 79.15C79.53 79.14 79.68 79.18 79.82 79.3C80.5 79.9 81.16 80.49 81.79 80.95C82.39 81.4 82.95 81.75 83.44 81.91L83.51 81.94C83.8 82.09 83.9 82.44 83.75 82.71L78.96 91.75L78.82 92.1C78.48 93.03 77.94 94.44 77.12 95.1C76.37 95.7 75.51 95.75 74.55 94.57C74.53 94.54 74.51 94.53 74.49 94.5L72.24 90.48ZM93.02 52.4C91.23 50.61 88.77 49.5 86.03 49.5C83.29 49.5 80.83 50.61 79.04 52.4C77.25 54.19 76.14 56.65 76.14 59.39C76.14 62.12 77.25 64.59 79.04 66.38C80.83 68.17 83.29 69.28 86.03 69.28C88.76 69.28 91.23 68.17 93.02 66.38C94.81 64.59 95.92 62.13 95.92 59.39C95.91 56.67 94.81 54.19 93.02 52.4ZM31.02 51.16C30.62 51.16 30.26 50.91 30 50.52C29.74 50.12 29.57 49.57 29.57 48.96C29.57 48.35 29.73 47.8 30 47.4C30.26 47 30.63 46.76 31.02 46.76H48.12C48.52 46.76 48.88 47.01 49.14 47.4C49.4 47.8 49.56 48.35 49.56 48.96C49.56 49.57 49.4 50.13 49.14 50.52C48.88 50.92 48.51 51.16 48.12 51.16H31.02ZM29.94 64.84C34.16 59.3 37.77 61.82 42.81 65.34C43.06 65.52 43.32 65.69 43.57 65.87C44.29 66.37 45.05 66.28 45.81 65.91C46.63 65.5 47.46 64.77 48.28 64.04L48.3 64.03C49.04 63.38 49.76 62.74 50.54 62.25C50.67 62.17 50.85 62.21 50.93 62.34L52.08 64.15C52.16 64.28 52.12 64.46 51.99 64.54C51.39 64.92 50.74 65.5 50.08 66.08L50.06 66.09C48.91 67.11 47.73 68.14 46.43 68.68C45.09 69.23 43.64 69.23 42.03 68.11L41.26 67.57C39.32 66.21 37.66 65.06 36.16 64.69C34.73 64.35 33.42 64.76 32.1 66.49C32 66.62 31.82 66.64 31.7 66.54L30 65.25C29.87 65.15 29.84 64.97 29.94 64.84ZM31.02 22.83C30.62 22.83 30.25 22.58 29.99 22.19C29.73 21.8 29.56 21.24 29.56 20.64C29.56 20.03 29.72 19.49 29.99 19.09C30.25 18.69 30.62 18.45 31.02 18.45H72.37C72.77 18.45 73.14 18.7 73.4 19.09C73.66 19.49 73.82 20.04 73.82 20.64C73.82 21.25 73.66 21.79 73.4 22.19C73.14 22.59 72.77 22.84 72.37 22.84L31.02 22.83ZM31.02 37.72C30.62 37.72 30.26 37.47 30 37.07C29.74 36.67 29.57 36.12 29.57 35.52C29.57 34.91 29.73 34.37 30 33.96C30.26 33.56 30.63 33.32 31.03 33.32H64.08C64.48 33.32 64.84 33.57 65.1 33.96C65.36 34.36 65.53 34.91 65.53 35.51C65.53 36.12 65.37 36.66 65.1 37.06C64.84 37.46 64.47 37.7 64.08 37.7H31.02V37.72Z" fill="white"/>
</svg>
