<svg width="123" height="72" viewBox="0 0 123 72" fill="none" xmlns="http://www.w3.org/2000/svg">
<path fill-rule="evenodd" clip-rule="evenodd" d="M91.95 64.68L93.94 57.09L92.57 55.59C91.95 54.69 91.82 53.9 92.16 53.22C92.9 51.75 94.44 52.02 95.88 52.02C97.39 52.02 99.25 51.73 99.72 53.62C99.88 54.25 99.68 54.91 99.24 55.59L97.87 57.09L99.06 61.65L106.95 54.79L111.04 54.89C109.63 52.06 107.84 49.66 105.76 47.4C109.68 48.92 113.69 50.42 116.66 52.28C118.55 53.46 119.52 54.36 120.29 55.79C121.91 58.84 122.09 61.57 122.33 64.87L122.9 67.73H100.66L100.68 67.8H92.17C91.98 69.75 90.86 70.88 88.67 71.04H61.68H34.24C32.04 70.87 30.92 69.74 30.74 67.77L31.5 55.73C31.71 52.95 32.49 50.75 33.76 49.07C34.6 47.96 35.64 47.14 36.79 46.5C40.44 44.47 48.96 43.87 52.27 40.89L57.34 55.8L59.89 46.95L58.64 45.58C58.08 44.76 57.95 44.04 58.27 43.42C58.95 42.08 60.35 42.33 61.66 42.33C63.03 42.33 64.72 42.07 65.15 43.79C65.29 44.36 65.11 44.96 64.71 45.58L63.46 46.95L66.01 55.8L70.6 40.89C73.91 43.87 82.44 44.47 86.08 46.5C87.23 47.14 88.28 47.96 89.11 49.07C90.38 50.75 91.16 52.94 91.37 55.73L91.95 64.68ZM15.29 48.25L18.69 58.24L20.4 52.31L19.56 51.39C19.18 50.84 19.1 50.36 19.31 49.94C19.76 49.04 20.7 49.21 21.58 49.21C22.5 49.21 23.63 49.04 23.92 50.19C24.02 50.57 23.89 50.98 23.63 51.39L22.79 52.31L24.5 58.24L27.58 48.25C28.03 48.65 28.65 48.99 29.38 49.28C29.13 49.81 28.9 50.37 28.7 50.95C28.18 52.46 27.84 54.14 27.7 56.01H27.71C27.71 56.05 27.7 56.1 27.7 56.14L26.96 67.72H21.61H2.35C0.87 67.61 0.12 66.85 0 65.53L0.51 58.19C0.65 56.33 1.18 54.86 2.03 53.73C2.59 52.99 3.29 52.44 4.06 52.01C6.5 50.65 13.07 50.25 15.29 48.25ZM13.62 34.09C13.29 34.12 13.04 34.19 12.86 34.31C12.76 34.38 12.68 34.47 12.63 34.57C12.57 34.69 12.55 34.85 12.55 35.02C12.57 35.57 12.86 36.31 13.43 37.16L13.44 37.18L15.34 40.2C16.1 41.4 16.89 42.63 17.87 43.53C18.8 44.38 19.93 44.96 21.43 44.96C23.05 44.96 24.23 44.36 25.2 43.46C26.21 42.51 27.01 41.21 27.8 39.91L29.93 36.4C30.36 35.42 30.49 34.83 30.35 34.55C30.26 34.38 29.91 34.33 29.33 34.38C28.96 34.46 28.57 34.39 28.16 34.18L29.23 30.98C25.32 30.93 22.65 30.25 19.48 28.23C18.44 27.57 18.13 26.81 17.09 26.88C16.3 27.03 15.64 27.38 15.12 27.95C14.62 28.49 14.24 29.23 13.99 30.18L14.62 34.01C14.3 34.21 13.96 34.23 13.62 34.09ZM30.55 33.14C31.01 33.28 31.35 33.54 31.55 33.95C31.87 34.6 31.75 35.57 31.14 36.95C31.13 36.98 31.12 37 31.1 37.03L28.94 40.59C28.1 41.97 27.25 43.35 26.11 44.42C24.92 45.54 23.45 46.28 21.44 46.27C19.56 46.27 18.15 45.55 16.99 44.49C15.88 43.47 15.03 42.17 14.23 40.89L12.33 37.87C11.62 36.81 11.26 35.85 11.23 35.05C11.22 34.66 11.28 34.31 11.43 34.01C11.58 33.68 11.81 33.41 12.13 33.2C12.28 33.1 12.46 33.01 12.65 32.94C12.53 31.32 12.49 29.32 12.57 27.64C12.61 27.23 12.69 26.82 12.8 26.41C13.29 24.68 14.5 23.28 16.01 22.32C16.54 21.98 17.12 21.7 17.74 21.48C21.39 20.16 26.22 20.88 28.81 23.68C29.86 24.82 30.53 26.33 30.67 28.33L30.55 33.14ZM49.65 19.77C49.23 19.82 48.9 19.93 48.66 20.09C48.51 20.19 48.39 20.33 48.32 20.48C48.24 20.66 48.2 20.89 48.2 21.15C48.22 21.98 48.66 23.07 49.52 24.33L49.54 24.35L52.37 28.86C53.5 30.66 54.68 32.49 56.14 33.82C57.53 35.09 59.22 35.95 61.44 35.96C63.86 35.97 65.62 35.07 67.06 33.73C68.57 32.32 69.77 30.37 70.95 28.43L74.13 23.19C74.77 21.73 74.97 20.85 74.76 20.43C74.63 20.16 74.07 20.1 73.13 20.19C73.06 20.2 72.99 20.2 72.92 20.19C72.53 20.19 72.11 20.09 71.65 19.88L73.08 15.1C67.24 15.03 63.25 14.01 58.53 10.99C56.98 9.99997 56.51 8.86997 54.96 8.97997C53.79 9.20997 52.8 9.72997 52.02 10.57C51.27 11.38 50.7 12.48 50.33 13.89L51.34 19.67C50.74 19.98 50.18 20 49.65 19.77ZM75.05 18.34C75.74 18.54 76.24 18.94 76.55 19.55C77.03 20.53 76.85 21.97 75.94 24.03C75.92 24.07 75.9 24.11 75.88 24.14L72.65 29.46C71.4 31.52 70.13 33.59 68.42 35.18C66.64 36.85 64.45 37.96 61.45 37.95C58.65 37.94 56.54 36.87 54.81 35.29C53.15 33.77 51.89 31.83 50.69 29.92L47.86 25.41C46.81 23.84 46.26 22.39 46.22 21.2C46.2 20.62 46.3 20.1 46.52 19.64C46.75 19.15 47.09 18.74 47.56 18.43C47.79 18.27 48.05 18.14 48.34 18.04C48.17 15.63 48.11 12.65 48.22 10.14C48.28 9.52997 48.4 8.91997 48.57 8.30997C49.29 5.71997 51.11 3.63997 53.36 2.20997C54.15 1.70997 55.02 1.28997 55.94 0.959966C61.38 -1.01003 68.6 0.0699668 72.46 4.24997C74.03 5.94997 75.02 8.20997 75.23 11.19L75.05 18.34ZM84.88 42.96L87.38 42.89L89.45 42.84C87.03 35.39 87.84 28.54 93.67 22.72C94.66 25.92 96.87 28.55 100.64 30.5C102.44 31.84 104.19 33.46 105.87 35.31C106.17 34.08 105.03 32.58 103.64 31.04C104.92 31.67 106.1 32.56 106.93 34.26C107.9 36.24 107.88 37.9 107.57 40.05C107.42 41.05 107.18 41.98 106.83 42.83H110.28C113.92 35.04 111.61 23.49 104.17 18.59C101.89 17.09 100.25 17.14 97.57 17.15C94.5 17.15 92.94 17.25 90.31 18.98C86.44 21.54 84.06 25.97 83.06 32.12C82.87 35.19 82.74 40.49 84.88 42.96Z" fill="#232323"/>
</svg>
