<svg width="123" height="74" viewBox="0 0 123 74" fill="none" xmlns="http://www.w3.org/2000/svg">
<path fill-rule="evenodd" clip-rule="evenodd" d="M104.27 58.8801L103.73 38.8901L70.88 48.3801C67.92 49.0301 65 49.3401 62.14 49.3501C59.07 49.3601 56.05 49.0301 53.08 48.3801L21.7 38.7901V59.0601C22.6 69.5901 52.81 72.8101 62.08 73.2501C69.51 73.6101 98.86 69.7301 102.72 63.6801C103.55 62.3601 104.07 60.7601 104.27 58.8801ZM117.58 24.5001V48.9301H118.35C118.88 48.9301 119.31 49.3601 119.31 49.8901V56.4601C119.31 56.9801 118.88 57.4201 118.35 57.4201H117.58V59.7201C118.56 59.9001 119.31 60.7701 119.31 61.8001C119.31 62.9601 118.35 63.9201 117.19 63.9201H113.4C112.24 63.9201 111.28 62.9701 111.28 61.8001C111.28 60.7701 112.03 59.9001 113.01 59.7201V57.4201H112.24C111.72 57.4201 111.28 56.9901 111.28 56.4601V49.8901C111.28 49.3601 111.71 48.9301 112.24 48.9301H113.01V25.9301L73.03 38.3501C65.79 40.0701 58.55 40.1901 51.31 38.3501L7.17997 25.1801L3.18997 23.9901C-1.78003 21.9601 -0.540026 17.1901 4.08997 16.0901L54 1.19007C59.15 -0.279934 64.29 -0.509934 69.44 1.19007L118.45 15.9101C123.78 17.2101 124.83 22.1401 118.63 24.1701L117.58 24.5001Z" fill="#232323"/>
</svg>
